<!--?xml version="1.0" standalone="no"?-->
              <svg id="sw-js-blob-svg" viewBox="0 0 100 100" xmlns="http://www.w3.org/2000/svg" version="1.1">
                    <defs> 
                        <linearGradient id="sw-gradient" x1="0" x2="1" y1="1" y2="0">
                            <stop id="stop1" stop-color="rgba(55, 67.86, 248, 1)" offset="0%"></stop>
                            <stop id="stop2" stop-color="rgba(31, 240.193, 251, 1)" offset="100%"></stop>
                        </linearGradient>
                    </defs>
                <path fill="url(#sw-gradient)" d="M21.4,-28.3C23.1,-24,16.6,-12.9,14.5,-5.5C12.3,2,14.5,5.8,15.5,13.4C16.4,21,16.2,32.3,11.4,36.1C6.7,39.9,-2.6,36.2,-8.4,30.8C-14.1,25.3,-16.5,18.1,-16.7,12.3C-16.9,6.4,-15.1,2.1,-15.1,-3.5C-15.2,-9.1,-17.1,-16,-14.9,-20.2C-12.7,-24.4,-6.4,-25.9,1.7,-28C9.8,-30.1,19.7,-32.6,21.4,-28.3Z" width="100%" height="100%" transform="translate(50 50)" stroke-width="0" style="transition: all 0.3s ease 0s;" stroke="url(#sw-gradient)"></path>
              </svg>